<svg xmlns="http://www.w3.org/2000/svg" viewBox="0 0 500 500" width="100%" height="100%">
  <defs>
    <linearGradient id="gradient1" x1="0%" y1="0%" x2="100%" y2="100%">
      <stop offset="0%" stop-color="#00BFFF" />
      <stop offset="100%" stop-color="#0066CC" />
    </linearGradient>
    <linearGradient id="gradient2" x1="0%" y1="0%" x2="100%" y2="100%">
      <stop offset="0%" stop-color="#6A5ACD" />
      <stop offset="100%" stop-color="#9370DB" />
    </linearGradient>
  </defs>
  <path d="M150 100 L350 100 L280 250 L350 400 L150 400 L220 250 Z" fill="url(#gradient1)" />
  <path d="M280 250 C330 270 350 300 350 400 C300 350 280 300 220 250 C280 230 330 200 350 100 C300 150 280 200 280 250 Z" fill="url(#gradient2)" />
  <circle cx="300" cy="150" r="5" fill="#FFFFFF" opacity="0.8" />
  <circle cx="320" cy="180" r="3" fill="#FFFFFF" opacity="0.6" />
  <circle cx="280" cy="200" r="4" fill="#FFFFFF" opacity="0.7" />
  <circle cx="310" cy="220" r="2" fill="#FFFFFF" opacity="0.5" />
  <circle cx="290" cy="300" r="3" fill="#FFFFFF" opacity="0.6" />
  <circle cx="320" cy="330" r="4" fill="#FFFFFF" opacity="0.7" />
  <circle cx="270" cy="350" r="2" fill="#FFFFFF" opacity="0.5" />
</svg> 